  0
SECTION
2
HEADER
9
$ACADVER
1
AC1009
  0
ENDSEC
  0
SECTION
2
TABLES
  0
TABLE
  2
LAYER
70
3
  0
LAYER
2
LAYNR0
70
0
62
1
6
CONTINUOUS
  0
LAYER
2
PLACEMENT_OUTLINE_TOP
70
0
62
2
6
CONTINUOUS
  0
LAYER
2
PADLAYER_TOP
70
0
62
3
6
CONTINUOUS
  0
ENDTAB
  0
ENDSEC
  0
SECTION
2
BLOCKS
  0
ENDSEC
  0
SECTION
2
ENTITIES
  0
POLYLINE
 5
1
  8
LAYNR0
 66
1
 40
0.127000
 41
0.127000
  0
VERTEX
 5
2
  8
LAYNR0
 10
12.98397
 20
0.00373
  0
VERTEX
 5
3
  8
LAYNR0
 10
-0.02083
 20
0.00373
  0
SEQEND
  8
LAYNR0
  0
POLYLINE
 5
4
  8
LAYNR0
 66
1
 70
1
 40
0.063500
 41
0.063500
  0
VERTEX
 5
5
  8
LAYNR0
 10
12.95222
 20
0.00373
 42
1.0
  0
VERTEX
 5
6
  8
LAYNR0
 10
13.01572
 20
0.00373
 42
1.0
  0
SEQEND
  8
LAYNR0
  0
POLYLINE
 5
7
  8
LAYNR0
 66
1
 70
1
 40
0.063500
 41
0.063500
  0
VERTEX
 5
8
  8
LAYNR0
 10
-0.05258
 20
0.00373
 42
1.0
  0
VERTEX
 5
9
  8
LAYNR0
 10
0.01092
 20
0.00373
 42
1.0
  0
SEQEND
  8
LAYNR0
  0
POLYLINE
 5
A
  8
LAYNR0
 66
1
 40
0.127000
 41
0.127000
  0
VERTEX
 5
B
  8
LAYNR0
 10
-0.02083
 20
0.00373
  0
VERTEX
 5
C
  8
LAYNR0
 10
-0.02084
 20
18.92673
  0
SEQEND
  8
LAYNR0
  0
POLYLINE
 5
D
  8
LAYNR0
 66
1
 70
1
 40
0.063500
 41
0.063500
  0
VERTEX
 5
E
  8
LAYNR0
 10
-0.05258
 20
0.00373
 42
1.0
  0
VERTEX
 5
F
  8
LAYNR0
 10
0.01092
 20
0.00373
 42
1.0
  0
SEQEND
  8
LAYNR0
  0
POLYLINE
 5
10
  8
LAYNR0
 66
1
 70
1
 40
0.063500
 41
0.063500
  0
VERTEX
 5
11
  8
LAYNR0
 10
-0.05259
 20
18.92673
 42
1.0
  0
VERTEX
 5
12
  8
LAYNR0
 10
0.01091
 20
18.92673
 42
1.0
  0
SEQEND
  8
LAYNR0
  0
POLYLINE
 5
13
  8
LAYNR0
 66
1
 40
0.127000
 41
0.127000
  0
VERTEX
 5
14
  8
LAYNR0
 10
-0.02084
 20
18.92673
  0
VERTEX
 5
15
  8
LAYNR0
 10
12.98396
 20
18.92673
  0
SEQEND
  8
LAYNR0
  0
POLYLINE
 5
16
  8
LAYNR0
 66
1
 70
1
 40
0.063500
 41
0.063500
  0
VERTEX
 5
17
  8
LAYNR0
 10
-0.05259
 20
18.92673
 42
1.0
  0
VERTEX
 5
18
  8
LAYNR0
 10
0.01091
 20
18.92673
 42
1.0
  0
SEQEND
  8
LAYNR0
  0
POLYLINE
 5
19
  8
LAYNR0
 66
1
 70
1
 40
0.063500
 41
0.063500
  0
VERTEX
 5
1A
  8
LAYNR0
 10
12.95221
 20
18.92673
 42
1.0
  0
VERTEX
 5
1B
  8
LAYNR0
 10
13.01571
 20
18.92673
 42
1.0
  0
SEQEND
  8
LAYNR0
  0
POLYLINE
 5
1C
  8
LAYNR0
 66
1
 40
0.127000
 41
0.127000
  0
VERTEX
 5
1D
  8
LAYNR0
 10
12.98396
 20
18.92673
  0
VERTEX
 5
1E
  8
LAYNR0
 10
12.98397
 20
0.00373
  0
SEQEND
  8
LAYNR0
  0
POLYLINE
 5
1F
  8
LAYNR0
 66
1
 70
1
 40
0.063500
 41
0.063500
  0
VERTEX
 5
20
  8
LAYNR0
 10
12.95221
 20
18.92673
 42
1.0
  0
VERTEX
 5
21
  8
LAYNR0
 10
13.01571
 20
18.92673
 42
1.0
  0
SEQEND
  8
LAYNR0
  0
POLYLINE
 5
22
  8
LAYNR0
 66
1
 70
1
 40
0.063500
 41
0.063500
  0
VERTEX
 5
23
  8
LAYNR0
 10
12.95222
 20
0.00373
 42
1.0
  0
VERTEX
 5
24
  8
LAYNR0
 10
13.01572
 20
0.00373
 42
1.0
  0
SEQEND
  8
LAYNR0
  0
POLYLINE
 5
25
  8
LAYNR0
 66
1
 40
0.127000
 41
0.127000
  0
VERTEX
 5
26
  8
LAYNR0
 10
12.98397
 20
2.84853
  0
VERTEX
 5
27
  8
LAYNR0
 10
-0.01603
 20
2.84853
  0
SEQEND
  8
LAYNR0
  0
POLYLINE
 5
28
  8
LAYNR0
 66
1
 70
1
 40
0.063500
 41
0.063500
  0
VERTEX
 5
29
  8
LAYNR0
 10
12.95222
 20
2.84853
 42
1.0
  0
VERTEX
 5
2A
  8
LAYNR0
 10
13.01572
 20
2.84853
 42
1.0
  0
SEQEND
  8
LAYNR0
  0
POLYLINE
 5
2B
  8
LAYNR0
 66
1
 70
1
 40
0.063500
 41
0.063500
  0
VERTEX
 5
2C
  8
LAYNR0
 10
-0.04778
 20
2.84853
 42
1.0
  0
VERTEX
 5
2D
  8
LAYNR0
 10
0.01572
 20
2.84853
 42
1.0
  0
SEQEND
  8
LAYNR0
  0
POLYLINE
 5
2E
  8
LAYNR0
 66
1
 40
0.127000
 41
0.127000
  0
VERTEX
 5
2F
  8
LAYNR0
 10
-0.01603
 20
2.84853
  0
VERTEX
 5
30
  8
LAYNR0
 10
-0.01604
 20
18.92053
  0
SEQEND
  8
LAYNR0
  0
POLYLINE
 5
31
  8
LAYNR0
 66
1
 70
1
 40
0.063500
 41
0.063500
  0
VERTEX
 5
32
  8
LAYNR0
 10
-0.04778
 20
2.84853
 42
1.0
  0
VERTEX
 5
33
  8
LAYNR0
 10
0.01572
 20
2.84853
 42
1.0
  0
SEQEND
  8
LAYNR0
  0
POLYLINE
 5
34
  8
LAYNR0
 66
1
 70
1
 40
0.063500
 41
0.063500
  0
VERTEX
 5
35
  8
LAYNR0
 10
-0.04779
 20
18.92053
 42
1.0
  0
VERTEX
 5
36
  8
LAYNR0
 10
0.01571
 20
18.92053
 42
1.0
  0
SEQEND
  8
LAYNR0
  0
POLYLINE
 5
37
  8
LAYNR0
 66
1
 40
0.127000
 41
0.127000
  0
VERTEX
 5
38
  8
LAYNR0
 10
-0.01604
 20
18.92053
  0
VERTEX
 5
39
  8
LAYNR0
 10
12.98396
 20
18.92053
  0
SEQEND
  8
LAYNR0
  0
POLYLINE
 5
3A
  8
LAYNR0
 66
1
 70
1
 40
0.063500
 41
0.063500
  0
VERTEX
 5
3B
  8
LAYNR0
 10
-0.04779
 20
18.92053
 42
1.0
  0
VERTEX
 5
3C
  8
LAYNR0
 10
0.01571
 20
18.92053
 42
1.0
  0
SEQEND
  8
LAYNR0
  0
POLYLINE
 5
3D
  8
LAYNR0
 66
1
 70
1
 40
0.063500
 41
0.063500
  0
VERTEX
 5
3E
  8
LAYNR0
 10
12.95221
 20
18.92053
 42
1.0
  0
VERTEX
 5
3F
  8
LAYNR0
 10
13.01571
 20
18.92053
 42
1.0
  0
SEQEND
  8
LAYNR0
  0
POLYLINE
 5
40
  8
LAYNR0
 66
1
 40
0.127000
 41
0.127000
  0
VERTEX
 5
41
  8
LAYNR0
 10
12.98396
 20
18.92053
  0
VERTEX
 5
42
  8
LAYNR0
 10
12.98397
 20
2.84853
  0
SEQEND
  8
LAYNR0
  0
POLYLINE
 5
43
  8
LAYNR0
 66
1
 70
1
 40
0.063500
 41
0.063500
  0
VERTEX
 5
44
  8
LAYNR0
 10
12.95221
 20
18.92053
 42
1.0
  0
VERTEX
 5
45
  8
LAYNR0
 10
13.01571
 20
18.92053
 42
1.0
  0
SEQEND
  8
LAYNR0
  0
POLYLINE
 5
46
  8
LAYNR0
 66
1
 70
1
 40
0.063500
 41
0.063500
  0
VERTEX
 5
47
  8
LAYNR0
 10
12.95222
 20
2.84853
 42
1.0
  0
VERTEX
 5
48
  8
LAYNR0
 10
13.01572
 20
2.84853
 42
1.0
  0
SEQEND
  8
LAYNR0
  0
POLYLINE
 5
49
  8
PLACEMENT_OUTLINE_TOP
 66
1
 40
0.025400
 41
0.025400
  0
VERTEX
 5
4A
  8
PLACEMENT_OUTLINE_TOP
 10
13.90866
 20
19.77733
  0
VERTEX
 5
4B
  8
PLACEMENT_OUTLINE_TOP
 10
13.90867
 20
3.02733
  0
SEQEND
  8
PLACEMENT_OUTLINE_TOP
  0
POLYLINE
 5
4C
  8
PLACEMENT_OUTLINE_TOP
 66
1
 70
1
 40
0.012700
 41
0.012700
  0
VERTEX
 5
4D
  8
PLACEMENT_OUTLINE_TOP
 10
13.90231
 20
19.77733
 42
1.0
  0
VERTEX
 5
4E
  8
PLACEMENT_OUTLINE_TOP
 10
13.91501
 20
19.77733
 42
1.0
  0
SEQEND
  8
PLACEMENT_OUTLINE_TOP
  0
POLYLINE
 5
4F
  8
PLACEMENT_OUTLINE_TOP
 66
1
 70
1
 40
0.012700
 41
0.012700
  0
VERTEX
 5
50
  8
PLACEMENT_OUTLINE_TOP
 10
13.90232
 20
3.02733
 42
1.0
  0
VERTEX
 5
51
  8
PLACEMENT_OUTLINE_TOP
 10
13.91502
 20
3.02733
 42
1.0
  0
SEQEND
  8
PLACEMENT_OUTLINE_TOP
  0
POLYLINE
 5
52
  8
PLACEMENT_OUTLINE_TOP
 66
1
 40
0.025400
 41
0.025400
  0
VERTEX
 5
53
  8
PLACEMENT_OUTLINE_TOP
 10
13.90867
 20
3.02733
  0
VERTEX
 5
54
  8
PLACEMENT_OUTLINE_TOP
 10
-0.89133
 20
3.02733
  0
SEQEND
  8
PLACEMENT_OUTLINE_TOP
  0
POLYLINE
 5
55
  8
PLACEMENT_OUTLINE_TOP
 66
1
 70
1
 40
0.012700
 41
0.012700
  0
VERTEX
 5
56
  8
PLACEMENT_OUTLINE_TOP
 10
13.90232
 20
3.02733
 42
1.0
  0
VERTEX
 5
57
  8
PLACEMENT_OUTLINE_TOP
 10
13.91502
 20
3.02733
 42
1.0
  0
SEQEND
  8
PLACEMENT_OUTLINE_TOP
  0
POLYLINE
 5
58
  8
PLACEMENT_OUTLINE_TOP
 66
1
 70
1
 40
0.012700
 41
0.012700
  0
VERTEX
 5
59
  8
PLACEMENT_OUTLINE_TOP
 10
-0.89768
 20
3.02733
 42
1.0
  0
VERTEX
 5
5A
  8
PLACEMENT_OUTLINE_TOP
 10
-0.88498
 20
3.02733
 42
1.0
  0
SEQEND
  8
PLACEMENT_OUTLINE_TOP
  0
POLYLINE
 5
5B
  8
PLACEMENT_OUTLINE_TOP
 66
1
 40
0.025400
 41
0.025400
  0
VERTEX
 5
5C
  8
PLACEMENT_OUTLINE_TOP
 10
-0.89133
 20
3.02733
  0
VERTEX
 5
5D
  8
PLACEMENT_OUTLINE_TOP
 10
-0.89134
 20
19.77733
  0
SEQEND
  8
PLACEMENT_OUTLINE_TOP
  0
POLYLINE
 5
5E
  8
PLACEMENT_OUTLINE_TOP
 66
1
 70
1
 40
0.012700
 41
0.012700
  0
VERTEX
 5
5F
  8
PLACEMENT_OUTLINE_TOP
 10
-0.89768
 20
3.02733
 42
1.0
  0
VERTEX
 5
60
  8
PLACEMENT_OUTLINE_TOP
 10
-0.88498
 20
3.02733
 42
1.0
  0
SEQEND
  8
PLACEMENT_OUTLINE_TOP
  0
POLYLINE
 5
61
  8
PLACEMENT_OUTLINE_TOP
 66
1
 70
1
 40
0.012700
 41
0.012700
  0
VERTEX
 5
62
  8
PLACEMENT_OUTLINE_TOP
 10
-0.89769
 20
19.77733
 42
1.0
  0
VERTEX
 5
63
  8
PLACEMENT_OUTLINE_TOP
 10
-0.88499
 20
19.77733
 42
1.0
  0
SEQEND
  8
PLACEMENT_OUTLINE_TOP
  0
POLYLINE
 5
64
  8
PLACEMENT_OUTLINE_TOP
 66
1
 40
0.025400
 41
0.025400
  0
VERTEX
 5
65
  8
PLACEMENT_OUTLINE_TOP
 10
-0.89134
 20
19.77733
  0
VERTEX
 5
66
  8
PLACEMENT_OUTLINE_TOP
 10
13.90866
 20
19.77733
  0
SEQEND
  8
PLACEMENT_OUTLINE_TOP
  0
POLYLINE
 5
67
  8
PLACEMENT_OUTLINE_TOP
 66
1
 70
1
 40
0.012700
 41
0.012700
  0
VERTEX
 5
68
  8
PLACEMENT_OUTLINE_TOP
 10
-0.89769
 20
19.77733
 42
1.0
  0
VERTEX
 5
69
  8
PLACEMENT_OUTLINE_TOP
 10
-0.88499
 20
19.77733
 42
1.0
  0
SEQEND
  8
PLACEMENT_OUTLINE_TOP
  0
POLYLINE
 5
6A
  8
PLACEMENT_OUTLINE_TOP
 66
1
 70
1
 40
0.012700
 41
0.012700
  0
VERTEX
 5
6B
  8
PLACEMENT_OUTLINE_TOP
 10
13.90231
 20
19.77733
 42
1.0
  0
VERTEX
 5
6C
  8
PLACEMENT_OUTLINE_TOP
 10
13.91501
 20
19.77733
 42
1.0
  0
SEQEND
  8
PLACEMENT_OUTLINE_TOP
  0
SOLID
 5
6D
  8
PADLAYER_TOP
 10
13.90867
 20
3.72733
 11
12.10867
 21
3.72733
 12
13.90867
 22
3.02733
 13
12.10867
 23
3.02733
  0
SOLID
 5
6E
  8
PADLAYER_TOP
 10
13.90867
 20
4.72733
 11
12.10867
 21
4.72733
 12
13.90867
 22
4.02733
 13
12.10867
 23
4.02733
  0
SOLID
 5
6F
  8
PADLAYER_TOP
 10
13.90867
 20
5.72733
 11
12.10867
 21
5.72733
 12
13.90867
 22
5.02733
 13
12.10867
 23
5.02733
  0
SOLID
 5
70
  8
PADLAYER_TOP
 10
13.90867
 20
6.72733
 11
12.10867
 21
6.72733
 12
13.90867
 22
6.02733
 13
12.10867
 23
6.02733
  0
SOLID
 5
71
  8
PADLAYER_TOP
 10
13.90867
 20
7.72733
 11
12.10867
 21
7.72733
 12
13.90867
 22
7.02733
 13
12.10867
 23
7.02733
  0
SOLID
 5
72
  8
PADLAYER_TOP
 10
13.90867
 20
8.72733
 11
12.10867
 21
8.72733
 12
13.90867
 22
8.02733
 13
12.10867
 23
8.02733
  0
SOLID
 5
73
  8
PADLAYER_TOP
 10
13.90867
 20
9.72733
 11
12.10867
 21
9.72733
 12
13.90867
 22
9.02733
 13
12.10867
 23
9.02733
  0
SOLID
 5
74
  8
PADLAYER_TOP
 10
13.90867
 20
10.72733
 11
12.10867
 21
10.72733
 12
13.90867
 22
10.02733
 13
12.10867
 23
10.02733
  0
SOLID
 5
75
  8
PADLAYER_TOP
 10
13.90867
 20
11.72733
 11
12.10867
 21
11.72733
 12
13.90867
 22
11.02733
 13
12.10867
 23
11.02733
  0
SOLID
 5
76
  8
PADLAYER_TOP
 10
13.90867
 20
12.72733
 11
12.10867
 21
12.72733
 12
13.90867
 22
12.02733
 13
12.10867
 23
12.02733
  0
SOLID
 5
77
  8
PADLAYER_TOP
 10
13.90867
 20
13.72733
 11
12.10867
 21
13.72733
 12
13.90867
 22
13.02733
 13
12.10867
 23
13.02733
  0
SOLID
 5
78
  8
PADLAYER_TOP
 10
13.90866
 20
14.72733
 11
12.10866
 21
14.72733
 12
13.90866
 22
14.02733
 13
12.10866
 23
14.02733
  0
SOLID
 5
79
  8
PADLAYER_TOP
 10
13.90866
 20
15.72733
 11
12.10866
 21
15.72733
 12
13.90866
 22
15.02733
 13
12.10866
 23
15.02733
  0
SOLID
 5
7A
  8
PADLAYER_TOP
 10
13.90866
 20
16.72733
 11
12.10866
 21
16.72733
 12
13.90866
 22
16.02733
 13
12.10866
 23
16.02733
  0
SOLID
 5
7B
  8
PADLAYER_TOP
 10
13.90866
 20
17.72733
 11
12.10866
 21
17.72733
 12
13.90866
 22
17.02733
 13
12.10866
 23
17.02733
  0
SOLID
 5
7C
  8
PADLAYER_TOP
 10
11.65866
 20
19.77733
 11
11.65866
 21
17.97733
 12
12.35866
 22
19.77733
 13
12.35866
 23
17.97733
  0
SOLID
 5
7D
  8
PADLAYER_TOP
 10
10.65866
 20
19.77733
 11
10.65866
 21
17.97733
 12
11.35866
 22
19.77733
 13
11.35866
 23
17.97733
  0
SOLID
 5
7E
  8
PADLAYER_TOP
 10
9.65866
 20
19.77733
 11
9.65866
 21
17.97733
 12
10.35866
 22
19.77733
 13
10.35866
 23
17.97733
  0
SOLID
 5
7F
  8
PADLAYER_TOP
 10
8.65866
 20
19.77733
 11
8.65866
 21
17.97733
 12
9.35866
 22
19.77733
 13
9.35866
 23
17.97733
  0
SOLID
 5
80
  8
PADLAYER_TOP
 10
7.65866
 20
19.77733
 11
7.65866
 21
17.97733
 12
8.35866
 22
19.77733
 13
8.35866
 23
17.97733
  0
SOLID
 5
81
  8
PADLAYER_TOP
 10
6.65866
 20
19.77733
 11
6.65866
 21
17.97733
 12
7.35866
 22
19.77733
 13
7.35866
 23
17.97733
  0
SOLID
 5
82
  8
PADLAYER_TOP
 10
5.65866
 20
19.77733
 11
5.65866
 21
17.97733
 12
6.35866
 22
19.77733
 13
6.35866
 23
17.97733
  0
SOLID
 5
83
  8
PADLAYER_TOP
 10
4.65866
 20
19.77733
 11
4.65866
 21
17.97733
 12
5.35866
 22
19.77733
 13
5.35866
 23
17.97733
  0
SOLID
 5
84
  8
PADLAYER_TOP
 10
3.65866
 20
19.77733
 11
3.65866
 21
17.97733
 12
4.35866
 22
19.77733
 13
4.35866
 23
17.97733
  0
SOLID
 5
85
  8
PADLAYER_TOP
 10
2.65866
 20
19.77733
 11
2.65866
 21
17.97733
 12
3.35866
 22
19.77733
 13
3.35866
 23
17.97733
  0
SOLID
 5
86
  8
PADLAYER_TOP
 10
1.65866
 20
19.77733
 11
1.65866
 21
17.97733
 12
2.35866
 22
19.77733
 13
2.35866
 23
17.97733
  0
SOLID
 5
87
  8
PADLAYER_TOP
 10
0.65866
 20
19.77733
 11
0.65866
 21
17.97733
 12
1.35866
 22
19.77733
 13
1.35866
 23
17.97733
  0
SOLID
 5
88
  8
PADLAYER_TOP
 10
0.90866
 20
17.72733
 11
-0.89134
 21
17.72733
 12
0.90866
 22
17.02733
 13
-0.89134
 23
17.02733
  0
SOLID
 5
89
  8
PADLAYER_TOP
 10
0.90866
 20
16.72733
 11
-0.89134
 21
16.72733
 12
0.90866
 22
16.02733
 13
-0.89134
 23
16.02733
  0
SOLID
 5
8A
  8
PADLAYER_TOP
 10
0.90866
 20
15.72733
 11
-0.89134
 21
15.72733
 12
0.90866
 22
15.02733
 13
-0.89134
 23
15.02733
  0
SOLID
 5
8B
  8
PADLAYER_TOP
 10
0.90866
 20
14.72733
 11
-0.89134
 21
14.72733
 12
0.90866
 22
14.02733
 13
-0.89134
 23
14.02733
  0
SOLID
 5
8C
  8
PADLAYER_TOP
 10
0.90867
 20
13.72733
 11
-0.89133
 21
13.72733
 12
0.90867
 22
13.02733
 13
-0.89133
 23
13.02733
  0
SOLID
 5
8D
  8
PADLAYER_TOP
 10
0.90867
 20
12.72733
 11
-0.89133
 21
12.72733
 12
0.90867
 22
12.02733
 13
-0.89133
 23
12.02733
  0
SOLID
 5
8E
  8
PADLAYER_TOP
 10
0.90867
 20
11.72733
 11
-0.89133
 21
11.72733
 12
0.90867
 22
11.02733
 13
-0.89133
 23
11.02733
  0
SOLID
 5
8F
  8
PADLAYER_TOP
 10
0.90867
 20
10.72733
 11
-0.89133
 21
10.72733
 12
0.90867
 22
10.02733
 13
-0.89133
 23
10.02733
  0
SOLID
 5
90
  8
PADLAYER_TOP
 10
0.90867
 20
9.72733
 11
-0.89133
 21
9.72733
 12
0.90867
 22
9.02733
 13
-0.89133
 23
9.02733
  0
SOLID
 5
91
  8
PADLAYER_TOP
 10
0.90867
 20
8.72733
 11
-0.89133
 21
8.72733
 12
0.90867
 22
8.02733
 13
-0.89133
 23
8.02733
  0
SOLID
 5
92
  8
PADLAYER_TOP
 10
0.90867
 20
7.72733
 11
-0.89133
 21
7.72733
 12
0.90867
 22
7.02733
 13
-0.89133
 23
7.02733
  0
SOLID
 5
93
  8
PADLAYER_TOP
 10
0.90867
 20
6.72733
 11
-0.89133
 21
6.72733
 12
0.90867
 22
6.02733
 13
-0.89133
 23
6.02733
  0
SOLID
 5
94
  8
PADLAYER_TOP
 10
0.90867
 20
5.72733
 11
-0.89133
 21
5.72733
 12
0.90867
 22
5.02733
 13
-0.89133
 23
5.02733
  0
SOLID
 5
95
  8
PADLAYER_TOP
 10
0.90867
 20
4.72733
 11
-0.89133
 21
4.72733
 12
0.90867
 22
4.02733
 13
-0.89133
 23
4.02733
  0
SOLID
 5
96
  8
PADLAYER_TOP
 10
0.90867
 20
3.72733
 11
-0.89133
 21
3.72733
 12
0.90867
 22
3.02733
 13
-0.89133
 23
3.02733
  0
SOLID
 5
97
  8
PADLAYER_TOP
 10
10.90867
 20
9.77733
 11
10.10867
 21
9.77733
 12
10.90867
 22
8.97733
 13
10.10867
 23
8.97733
  0
SOLID
 5
98
  8
PADLAYER_TOP
 10
10.90867
 20
11.77733
 11
10.10867
 21
11.77733
 12
10.90867
 22
10.97733
 13
10.10867
 23
10.97733
  0
SOLID
 5
99
  8
PADLAYER_TOP
 10
10.90867
 20
13.77733
 11
10.10867
 21
13.77733
 12
10.90867
 22
12.97733
 13
10.10867
 23
12.97733
  0
SOLID
 5
9A
  8
PADLAYER_TOP
 10
8.65866
 20
16.77733
 11
7.85866
 21
16.77733
 12
8.65866
 22
15.97733
 13
7.85866
 23
15.97733
  0
SOLID
 5
9B
  8
PADLAYER_TOP
 10
5.15866
 20
16.77733
 11
4.35866
 21
16.77733
 12
5.15866
 22
15.97733
 13
4.35866
 23
15.97733
  0
SOLID
 5
9C
  8
PADLAYER_TOP
 10
2.90867
 20
13.77733
 11
2.10867
 21
13.77733
 12
2.90867
 22
12.97733
 13
2.10867
 23
12.97733
  0
SOLID
 5
9D
  8
PADLAYER_TOP
 10
2.90867
 20
11.77733
 11
2.10867
 21
11.77733
 12
2.90867
 22
10.97733
 13
2.10867
 23
10.97733
  0
SOLID
 5
9E
  8
PADLAYER_TOP
 10
2.90867
 20
9.77733
 11
2.10867
 21
9.77733
 12
2.90867
 22
8.97733
 13
2.10867
 23
8.97733
  0
SOLID
 5
9F
  8
PADLAYER_TOP
 10
6.90867
 20
7.27733
 11
6.10867
 21
7.27733
 12
6.90867
 22
6.47733
 13
6.10867
 23
6.47733
  0
ENDSEC
  0
EOF
